<svg xmlns="http://www.w3.org/2000/svg" height="48" viewBox="0 96 960 960" width="48">
    <path
        d="m605 481 55-34 54 34q11 7 24.5.587T752 461V228H568v233q0 14.174 12.5 20.587T605 481ZM285 861q-36.413 0-63.706-27.612Q194 805.775 194 770V228q0-36.188 27.294-64.094Q248.587 136 285 136h542q36.188 0 63.594 27.906T918 228v542q0 35.775-27.406 63.388Q863.188 861 827 861H285Zm-151 151q-36.825 0-63.912-27.406Q43 957.188 43 921V333q0-19.025 12.483-32.013Q67.965 288 87.483 288 108 288 121 300.987q13 12.988 13 32.013v588h587q19.45 0 32.725 12.5Q767 946 767 965.816q0 20.816-13.275 33.5Q740.45 1012 721 1012H134Z"
        fill="#637381" opacity="0.7"/>
</svg>